<?xml version="1.0" encoding="UTF-8"?>
<svg id="FactoryLogo" xmlns="http://www.w3.org/2000/svg" viewBox="0 0 606.89 405.27">
  <defs>
    <style>
      .cls-1, .cls-2 {
        fill: #231f20;
      }

      .cls-2 {
        stroke: #231f20;
        stroke-miterlimit: 10;
        stroke-width: 5px;
      }
    </style>
  </defs>
  <path class="cls-1" d="M1.36,292.47h77.5v20.74H30.42v24.91h40.31v20.8H30.42v45.65H1.36v-112.1Z"/>
  <path class="cls-1" d="M576.12,366.47v38.12h-29.06v-38.05l-30.53-73.34h29.67c4.27,10.84,9.37,28.62,15.31,53.32,6.05-24.71,11.19-42.48,15.4-53.32h29.67l-30.45,73.27Z"/>
  <g>
    <path d="M110.01,360.72l-5.24,17.35h-26.19l25.27-85.6h34.43l25.19,85.6h-26.27l-5.08-17.35h-22.11ZM114.71,344.88h12.63l-6.32-36.47-6.32,36.47Z"/>
    <path d="M241.34,376.31v-14.05h-21.95c-.1,0-.19-.02-.29-.03h-17.46v-53.93h27.16v.05h12.54v-15.56c-1.6-.21-3.27-.33-5.02-.33h-42.19c-5.75,0-10.71,1.13-14.86,3.39-4.21,2.29-6.32,5.06-6.32,8.3v62.23c0,3.24,2.11,6,6.32,8.3,4.16,2.26,9.11,3.39,14.86,3.39h42.19c1.83,0,3.57-.13,5.23-.36-.12-.43-.21-.89-.21-1.41Z"/>
    <path d="M281.48,308.3h-25.27v-15.83h76.26v15.83h-25.19v69.76h-25.81v-69.76Z"/>
    <path d="M396.88,292.47c5.19,0,9.65,1.13,13.4,3.39,3.8,2.29,5.7,5.06,5.7,8.3v62.23c0,3.24-1.9,6-5.7,8.3-3.75,2.26-8.22,3.39-13.4,3.39h-38.05c-5.19,0-9.66-1.13-13.4-3.39-3.8-2.29-5.7-5.06-5.7-8.3v-62.23c0-3.24,1.9-6,5.7-8.3,3.75-2.26,8.22-3.39,13.4-3.39h38.05ZM365.6,308.3v53.93h24.5v-53.93h-24.5Z"/>
    <path d="M461.97,347.56v30.51h-25.88v-85.6h57.16c5.19,0,9.65,1.13,13.4,3.39,3.8,2.29,5.7,5.06,5.7,8.3v22.06c0,5.6-3.31,10.07-9.94,13.41,6.62,3.34,9.94,7.84,9.94,13.51v24.94h-25.88v-24.94c0-1.55-.92-2.88-2.77-4-1.85-1.05-4.01-1.57-6.47-1.57h-15.25ZM477.22,331.73c2.47,0,4.62-.54,6.47-1.62,1.85-1.05,2.77-2.34,2.77-3.9v-17.91h-24.5v23.42h15.25Z"/>
  </g>
  <g>
    <path d="M279.32,272.19h-5.41v-3.2h16.33v3.2h-5.39v14.08h-5.53v-14.08Z"/>
    <path d="M297.59,279.23v7.04h-5.54v-17.28h5.54v7.04h5.24v-7.04h5.54v17.28h-5.54v-7.04h-5.24Z"/>
    <path d="M318.34,283.07h9.24v3.2h-14.78v-17.28h14.78v3.2h-9.24v3.84h7.69v3.21h-7.69v3.84Z"/>
  </g>
  <g>
    <path class="cls-1" d="M156.2,387.99h10.55c1.03,0,1.91.23,2.66.68.74.46,1.12,1.02,1.12,1.67v3.56c0,1.04-.55,1.89-1.66,2.55,1.52.68,2.28,1.64,2.28,2.88v1.6c0,1.32-.74,2.38-2.23,3.19-1.4.76-3.14,1.13-5.23,1.13h-7.47v-17.28ZM161.27,391.19v3.84h2.34c.49,0,.92-.11,1.28-.32.37-.23.56-.49.56-.8v-2.73h-4.18ZM161.27,402.07h2.4c1.6,0,2.4-.37,2.4-1.12v-1.6c0-.31-.18-.58-.54-.8-.36-.21-.78-.32-1.27-.32h-2.99v3.84Z"/>
    <path class="cls-1" d="M179.66,399.11v6.16h-5.07v-17.28h11.19c1.02,0,1.89.23,2.62.68.74.46,1.12,1.02,1.12,1.67v4.45c0,1.13-.65,2.03-1.95,2.71,1.3.67,1.95,1.58,1.95,2.73v5.03h-5.07v-5.03c0-.31-.18-.58-.54-.81-.36-.21-.78-.32-1.27-.32h-2.99ZM182.65,395.91c.48,0,.9-.11,1.27-.33.36-.21.54-.47.54-.79v-3.62h-4.8v4.73h2.99Z"/>
    <path class="cls-1" d="M198.24,402.07h8.45v3.2h-13.52v-17.28h13.52v3.2h-8.45v3.84h7.03v3.21h-7.03v3.84Z"/>
    <path class="cls-1" d="M218.87,387.99h6.44l3.09,14.05c1.02-6.22,1.92-10.9,2.72-14.05h5.13l-4.36,17.28h-6.77l-3.02-12.44-3.02,12.44h-6.77l-4.38-17.28h5.13c.79,3.15,1.7,7.84,2.72,14.05l3.09-14.05Z"/>
    <path class="cls-1" d="M238.35,405.27v-17.28h5.07v17.28h-5.07Z"/>
    <path class="cls-1" d="M252.53,394.14v11.13h-5.07v-17.28h7.03l4.15,11.18v-11.18h5.07v17.28h-7.02l-4.16-11.13Z"/>
    <path class="cls-1" d="M277.38,399.11h-2.4v-3.2h7.47v7c0,.65-.37,1.21-1.12,1.67-.73.46-1.61.68-2.62.68h-7.45c-1.02,0-1.89-.23-2.63-.68-.74-.46-1.12-1.02-1.12-1.67v-12.56c0-.65.37-1.21,1.12-1.67.73-.46,1.61-.68,2.63-.68h7.45c1.02,0,1.89.23,2.62.68.74.46,1.12,1.02,1.12,1.67v3.47h-5.07v-2.63h-4.8v10.89h4.8v-2.96Z"/>
    <path class="cls-1" d="M307.9,402.07h-3.4s0,0,0,0h-4.84v-10.89h3.81s.09-.01.14-.01h4.3v-3.16c-.18-.01-.36-.03-.55-.03h-9.37c-1.28,0-2.38.23-3.3.68-.94.46-1.4,1.02-1.4,1.67v12.56c0,.65.47,1.21,1.4,1.67.92.46,2.02.68,3.3.68h9.37c.19,0,.37-.02.55-.03v-3.17Z"/>
    <path class="cls-1" d="M322.14,387.99c1.02,0,1.89.23,2.63.68.74.46,1.12,1.02,1.12,1.67v12.56c0,.65-.37,1.21-1.12,1.67-.73.46-1.61.68-2.63.68h-7.45c-1.02,0-1.89-.23-2.62-.68-.75-.46-1.12-1.02-1.12-1.67v-12.56c0-.65.37-1.21,1.12-1.67.73-.46,1.61-.68,2.62-.68h7.45ZM316.02,391.19v10.89h4.8v-10.89h-4.8Z"/>
    <path class="cls-1" d="M329.82,405.27v-17.28h5.07v14.08h7.03v3.2h-12.1Z"/>
    <path class="cls-1" d="M344.02,405.27v-17.28h5.07v14.08h7.03v3.2h-12.1Z"/>
    <path class="cls-1" d="M363.28,402.07h8.45v3.2h-13.52v-17.28h13.52v3.2h-8.45v3.84h7.03v3.21h-7.03v3.84Z"/>
    <path class="cls-1" d="M387.45,402.07h-3.87s0,0,0,0h-3.64v-10.89h5.54s1.97,0,1.97,0v-3.17c-.15,0-.28-.03-.43-.03h-8.61c-1.17,0-2.19.23-3.03.68-.86.46-1.29,1.02-1.29,1.67v12.56c0,.65.43,1.21,1.29,1.67.85.46,1.86.68,3.03.68h8.61c.15,0,.29-.02.43-.03v-3.17Z"/>
    <path class="cls-1" d="M395.34,391.19h-4.95v-3.2h14.94v3.2h-4.93v14.08h-5.05v-14.08Z"/>
    <path class="cls-1" d="M406.99,405.27v-17.28h5.07v17.28h-5.07Z"/>
    <path class="cls-1" d="M426.12,387.99h5.14l-4.93,17.28h-6.74l-4.95-17.28h5.13c.92,3.17,1.99,7.84,3.18,13.99,1.21-6.16,2.26-10.82,3.17-13.99Z"/>
    <path class="cls-1" d="M438.28,402.07h8.45v3.2h-13.52v-17.28h13.52v3.2h-8.45v3.84h7.03v3.21h-7.03v3.84Z"/>
  </g>
  <line class="cls-2" x1="460.1" y1="395.34" x2="536.76" y2="395.37"/>
  <g>
    <path d="M162.99,175.11l34.98,6.35,4.7-1.95-.58-42.46,14.18-10.32,1.64-8.09,9.54-1.92,16.34,2.61.75,9.84,2.82,1.7,13.82-9.9,1.22-8.4c9.09-3.9,18.28-1.42,27.63-.03l1.33,10.85c.25.76,1.98,1.77,2.71,1.61.83-.18,5.63-4.47,6.87-5.32,2.82-1.93,5.78-3.6,8.62-5.49l.93-8.69c.76-.49,9.42-2.3,10.59-2.26,1.06.04,2.09.6,3.21.69,2.81.23,13.57.7,15.1,2.22,2.34,2.33-2.07,11.93,3.51,12.96l16.7-11.32c1.04-2.34-.77-7.5,1.21-9.05,1.02-.79,6.17-1.78,7.72-1.9,7.12-.57,15.25,1.18,22.15,2.91,2.27,3.14.66,7.1,1.59,10.59l4.41,2.47,18.06-12.73c.82-2.28-.44-7.7,1.59-9.31.71-.56,9.45-2.64,10.7-2.68.98-.02,1.98.46,3.06.46,6.74.02,12.92.8,19.57,1.27l1.61,12.82c3.01,2.74,12.77,6.64,13.67,10.7.95,4.29-.43,10.72.12,15.27l1.91,62.5-5.75.66v-12.83c-2-.35-2.94,1.36-4.17,2.57l-.29,11.14-3.24,1.05v-20.2l-1.6-.97-1.6.97v20.84l-8.33,1.92c-.85-.93,7.42-12.5,4.81-15.39l-9.92,16.37-12.43,2.17c-1.53-.49-7.19-11.74-9.1-14.03-1.6-1.92-3.95-2.1-3.59-5.71l-3.12-.73v23.73l-3.2.64-.96-16.67c-.56.79-1.82,1.49-2.28,2.21-1.55,2.41,0,14.58-.63,15.09l-5.11.66v-26.62l-3.21-1.6v30.46l2.24,1.01,112.79-21.68,63.17,25.56.8,30.63,9.55,1.99v23.73h24.05c1.66,1.38.88,4.04.88,6.01l-.52.76-254.36.31-7.99-.67v-18.6h-65.42v-45.21l-1.08-.85-90.57-14.8c.18.76-.71,1.9-.71,2.18v70.87h9.62v-55.8l66.06,9.3v52.59l-1.06.81c-.64-.29-1.42.15-1.83.15H.1c.3-2.29-.87-5.38.96-7.05h40.72v-50.34c.86-1.11,2.41-1.09,3.73-1.4,46.04-11.01,93.4-17.44,139.61-27.84l97.72,16.82.73,12.1c15.6,1.34,31.06,4.16,46.56,6.35,7.2,1.02,14.47,1.71,21.68,2.69,7.87,1.07,17.99,3.64,25.71,3.84,4.59.12,10.28-2.32,15.08-1.98l-9.62-1.92-.69-12.78c-3.68.17-8.43-2.11-11.5.27v10.58l-14.11-1.92v-37.84h-3.21s.65,37.2.65,37.2h-3.85v-31.43l-3.21,2.24v28.54l-11.9-2.53.35-14.15-4.44,9.34c-.21,1.17.44,4.51-.98,4.64l-22.79-3.08v-27.58s-3.21,0-3.21,0c.06,4.8-.07,9.63,0,14.44.02,1.22.71,2.44.71,3.84,0,2.72-1.79,5.82-.06,8.65l-4.49-.64c2.49-2.44.76-4.73.63-7.36-.21-4.37.17-8.79,0-13.16l-2.56,1.28v18.6l1.28.64-5.13-.64v-28.86h-2.57v27.26c0,.14.95.71.64.96l-4.21-.6-.24-9.93-2.6-1.33c2.27-2.64,1.86-6.09,2.55-9.3l-5.54,8.89-22.66-3.78-.09-5.03c-5.46-2.52-1.6,2.08-4.07,4.28l-6.97-1.26-.99-.93-.05-4.96c-4.03-3.02-2.2,1.25-2.58,3.77-.1.68-.26,1.18-.95,1.46l-29.85-5.64,7.36-1.29c5.99-.07,11.98.13,17.97,0,.77-.02,2.39.47,2.24-.64-2.97.52-5.86-.55-8.63-.68-7.97-.35-15.76.62-23.68.7l-1.36-3.88c-1.41,1.06-.92,2.74-.96,4.18-.03,1.02.24,1.04-.97.96l-59.95-10.92v16.67l-59,11.54c3.45-3.28.85-8.11,2.54-11.88l50.04-11.85c.13-1.18-1.37-.58-2.07-.47-16.32,2.57-32.22,8.02-48.59,10.09l.65-7.04,53.58-12.16,12.47,1.24v-11.54l6.12-.52.94.84v13.15ZM431.39,93.02c4.13-.61,9.5.44,13.79,0,.18-.82-1.2-1.05-1.75-1.13-5.34-.8-10.82-.85-16.21-.79v3.21c.39.41,3.47-1.18,4.17-1.28ZM424.01,91.74c-4.79.16-7.3,1.06-6.41,6.41l3.52-1.28,2.88-5.13ZM447.74,100.07l-.73-4.07-.95-.99-8.58.58,5.62,3.03,4.64,1.45ZM454.16,109.69c-5.69-6.11-14.5-8.97-22.15-11.99l-13.12,9.11c11.8.49,23.59,1.09,35.27,2.88ZM368.86,99.44l-6.34,1.35-.07,5.06,5.05-1.36,1.36-5.05ZM374.31,101.36c3.55-.37,7.61.27,11.22,0l-9.27-1.95-4.2.03v2.56c.98.41,1.85-.6,2.25-.64ZM388.66,104.65l-8.26-.72c.96,1.36,7.88,5.4,8.98,4.48l-.72-3.76ZM324.29,107.77c2.55-.53,6.55.38,9.3,0l-10.57-1.94-.97.02v3.21c.21.25,1.77-1.19,2.24-1.28ZM318.84,106.49l-6.36.69-.05,5.72c.86-.61,2.6-.97,3.22-1.6s.44-1.54.82-2.06c.43-.59,2.31-1.19,2.38-2.75ZM395.15,118.03c-4.51-6.04-12.82-8.67-19.58-11.5l-11.85,7.34,31.42,4.16ZM337.43,114.82c.92-6.43-5.35-4.13-9.62-4.48l5.33,3.32,4.28,1.17ZM411.83,147.53v20.52h1.92v-21.16l13.47-.64v19.56l1.6.97,24.06,1.27v-21.16c-7.74-2.06-15.53-1.69-23.42-1.92-1.08-.03-2.1-.6-3.19-.66-4.24-.23-8.26,1.1-12.52.65l-.64-30.79,13.47-1.28.64,29.51,25.66,1.28c.11-4.81-.15-9.65-.03-14.46.05-2.32.8-4.36.7-7.06-.08-2.36-1.07-4.11-.03-6.7l3.13.72.04,27.74,3.88,1.04v-28.54c0-.22.91-.93.64-1.6-18.22-5.02-38.6-7.14-56.43.33-1.37,1.42-.38.94.7.7,1.88-.42,3.74-1.09,5.71-1.03l.69,30.4-7.74,2.95,7.69-.64ZM270.09,112.9l-5.72,1.33-.04,5.08c2.11.61,6.67-5.49,5.77-6.41ZM275.55,114.83c2.36-.65,7.23.47,9.94,0,.05-.9-2.29-.97-3.06-1.11-1.34-.24-8.71-1.24-9.13-.82v3.21c1.24.45,1.75-1.14,2.25-1.28ZM341.92,124.45c1.05-1.08-4.15-4.53-4.93-5.01-1.61-.99-10.91-5.81-12.1-5.9-3.17-.25-8.4,5.99-11.82,6.43-.06,1.36-.29,1.21.95,1.28,4.5.22,9,.3,13.49.63l14.41,2.58ZM288.05,117.39c-2.02.06-4.07-.07-6.1,0-.78.03-2.39-.48-2.24.64l8.33,3.21v-3.85ZM396.44,120.6c-11.63-2.21-24.31-3.84-36.08-1.77-3.67.65-7.12,2.26-10.73,3.06-.18,1.07,1.59.72,2.25.65,1.2-.13,2.29-.73,3.52-.65l1.29,29.49-7.06,2.57,6.41-.64v18.92c0,.39,1.32,1.23,1.92.96,1.94-6.89-1.31-13.54.73-20.43l11.45-1.38.93,19.93,19.6,1.24v-20.52c-6.15-1.08-12.09-1.06-18.29-1.27-1.22-.04-2.43-.63-3.82-.69-3.37-.14-7.04,1.3-10.6.68v-29.5l12.19-1.28v28.22l20.52,1.28v-27.58l1.95.29.7,26.87,3.12,1.69v-30.14ZM225.2,119.32l-5.7,1.35-.07,4.42c3.33-.38,5-2.7,5.77-5.77ZM229.37,121.24c2.9-.35,6.33.25,9.3,0l-3.58-1.23c-2.2.39-4.4-.61-6.35-.72-1.78-.1-.76,1.52-.97,2.58.78.27,1.37-.61,1.6-.64ZM293.18,130.22c1.18-1.11-5.46-5.24-6.21-5.65-1.35-.74-10.76-5.11-11.44-5.06l-10.56,6.86,28.21,3.84ZM241.88,123.8c-2.55-.17-5.3.55-7.69-.64v1.28s7.69,3.21,7.69,3.21v-3.85ZM306.65,158.12v17.96c0,.17.74.64.96.95.22-.31.96-.78.96-.95v-18.92l10.91-.64.64,19.24,17.96.64v-19.24c-8.88-2.11-18.12-2.12-27.28-1.94-.69.01-1.33.26-1.92.58l-.85-.95v-26.79c.32-1.16,4.64-1.62,5.97-1.71,1.6-.1,3.25.13,4.84.03l.64,26.94,17.96.64v-25.65h2.57v24.69c0,.89,1.91,2.89,3.2,2.24l-.64-28.86c-13.86-2.47-28.15-3.36-41.69,1.29v1.28s5.13-1.28,5.13-1.28c.13,7.16-.17,14.36-.01,21.52.04,1.68,1.17,6.23.02,7.03l-5.78,2.23,5.11-1.01,1.3.7ZM246.37,135.34c-3.12-5.35-10.46-6.91-15.76-9.63l-10.53,6.76,26.29,2.88ZM259.19,162.28v18.6h1.92v-19.24l9.85-.55,1.05.87v17.64l17.32.64v-18.6c-5.45-1.12-10.86-1.01-16.36-1.27-1.67-.08-3.1-.73-5.14-.69-1.82.04-6.14,1.51-7.08.05l-.23-26.26,10.85-1.33v25.65l17.32,1.28v-25.65l2.6,1.05c.35,8.28-.92,17.03.75,25.1l2.1.79-.94-27.91c-12.71-3.28-26.79-3.56-39.14,1.29-1.33,1.38-.39,1.03.72.72.7-.19,3.54-1.28,3.77-1.03l.68,27.2-5.81,2.29,5.77-.64ZM247.65,164.85v-26.62l-1.06-.86c-12.79-2.04-26.36-2.6-38.7,1.83-.13,1.2,1.36.57,2.07.47.97-.14,1.94-.73,3.05-.48-.21,7.83.27,15.62.64,23.42.06,1.25-.06,1,1.28.95v-25.01l10.26-.64v24.37l17.32,1.29-.64-23.73h2.56v24.37l3.21.64ZM456.72,148.17v20.2l1.05.87,3.44.09c.26-7.11-.23-14.14-.64-21.17h-3.85ZM393.87,153.31v19.88l3.2.64c.42-6.56-1.1-12.9-.61-19.47l-2.6-1.05ZM343.21,158.44l-2.57-.64v18.28l.97.96h1.6s0-18.59,0-18.59ZM294.47,181.52v-17.64l-2.57-1.6v18.6l2.57.64ZM242.52,184.09v-17.64l-1.05-.88c-4.69-.72-9.33-.51-14.03-.72-1.09-.05-2.1-.6-3.19-.66-5.03-.28-10.15,1.17-15.08,1.93.12,1.46,2.81.39,3.55.12l.94.84v17h1.92v-17.96l10.26-.64v17.96l16.67.64ZM208.21,166.77c-.42,0-.42.64,0,.64s.42-.64,0-.64ZM247.65,167.41l-2.57-.64v17.96h2.57v-17.32ZM443.89,170.63c-9.03-.03-18.26-1.69-27.24,0l-11.87,1.91c1.8-.08,3.65.14,5.46.01,6.3-.44,12.89-1.11,19.2-1.32,4.06-.13,8.15.11,12.22.03.77-.02,2.39.47,2.24-.64ZM388.74,175.76c-3.29.23-6.74-1.06-9.93-1.3-7.08-.52-14.09.61-21.11.71l-6.79,1.86,35.6-.64,2.24-.64ZM336.15,179.6c-10.28-2.17-20.69-1.21-31.03.07l-3.6,1.21,34.63-1.27ZM340.64,180.24v32.39l3.2.96c.27-10.83-.24-21.58-.6-32.34l-2.61-1.01ZM288.69,183.45l-17.64-1.3-7.7.64-9.29,1.93,32.39-.64c.77-.02,2.39.47,2.24-.64ZM375.92,211.02l3.55-.24.86-.75,8.28-19.34.13-5.32-12.82,25.65ZM329.05,212.25c1.78-7.77,7.4-14.96,7.1-23.03l-10.79,21.59-.11,1.49,3.8-.05ZM369.5,211.02l-9.3-19.89c-.7.02-.37,9.33.33,10.58v9.31s8.97,0,8.97,0ZM318.84,212.3l-8.97-18.59c.27,6.4.97,12.77.63,19.24l8.34-.65ZM567.03,215.51l-57.07-21.17c-.91.93-.74,9.31-.68,11.26.57,17.22.44,34.72,1.32,51.91v10.59s8.33,0,8.33,0v-36.56l48.1,10.26v-26.29ZM178.39,201.4l-.31-1.27-127.95,25.64c2.43,0,4.9-.37,7.3-.71,17.46-2.46,35.75-5.84,53.12-9.09,22.73-4.25,45.38-9.2,67.85-14.57ZM383.61,211.02h2.89s1.32-.6,1.32-.6l.28-9.02-2.69,4.04-1.79,5.58ZM491.99,205.25l-5.77,1.6v9.94l5.77-.64v-10.9ZM484.3,216.8v-9.3l-1.3-.7-8.32,1.67.29,9,1.32.65,8.02-1.32ZM472.75,209.1l-10.26,1.28v8.98c3.44.08,6.9-.61,10.26-1.28v-8.98ZM460.57,211.02l-10.94,2.3.04,7.96,10.9-1.28v-8.98ZM447.74,213.59l-10.91,1.28v8.34s10.31-1.56,10.31-1.56c1.26-.82.32-6.34.6-8.06ZM434.27,215.52l-10.83,1.99-.07,6.98c.38.39,10.51-.9,10.83-1.36l.07-7.62ZM495.84,245.66v22.45l3.77-.07c1.63-1.12.43-21.16,0-24.55l-.55-.74-84.68-16.34c.95-2.61,5.69-.25,6.77-1.88l.28-7.09-10.85,1.97-.65,6.08-9.02,1.89,94.92,18.28ZM146.32,236.68l11.77-1.38,1.06-.86v-13.47l-1.3-.69-11.53,2.62v13.79ZM144.39,236.68v-13.15l-1.45-.85c-3.62,1.19-8.27.37-11.38,2.77v12.51l12.83-1.28ZM250.85,229.63l-50.02-6.42.05,3.8c.99.02,1.92.52,2.89.64,14.74,1.81,30.09,3.98,44.79,5.24.66.06,1.31.57,1.97.6l.33-3.85ZM116.82,227.06v12.83l11.76-1.39.99-.93c.25-4.17-1.06-8.21-.56-12.43l-12.18,1.92ZM114.25,227.7l-12.83,1.92v12.19l11.78-1.37,1.05-.88v-11.86ZM98.86,230.26l-11.13,1.38-1.06.86v10.58l12.19-1.28v-11.54ZM250.85,236.04l-50.02-5.78.07,3.13c16.16,2.69,32.68,3.59,48.98,5.87,1.76.32.76-2.15.97-3.22ZM84.11,232.83l-11.73,1.41-1.09.83v9.94l12.83-1.28v-10.9ZM57.17,237v9.3l12.17-1.3-.57-9.94-10.54,1.08-1.06.86ZM491.35,268.1v-18.28l-83.37-14.43v32.71h83.37ZM250.8,242.51l-49.97-5.83v3.84c1.68-.26,3.2.48,4.8.65,10.21,1.14,20.61,1.64,30.8,2.54,4.79.42,9.59,1.61,14.42,1.29l-.06-2.51ZM310.5,239.88l-14.75-1.28v9.3c0,.1.72,1.58,1.05,1.63l13.7.61v-10.26ZM317.55,241.17v9.62l46.82,2.85v-7.98s-46.82-4.49-46.82-4.49ZM574.08,250.15l-46.18-8.34v26.29h3.21v-21.48c0-.08.91-1.25,1.31-.69l10.23,2.61v19.56h3.21v-19.88l10.9,1.92v17.96h3.21v-17.32c3.7,1.23,8.37.53,11.54,2.89v14.43h2.57v-17.96ZM250.86,248.22l-50.03-4.49v3.85c1.69-.3,3.24.54,4.8.65,13.66.99,27.42,1.71,41.06,2.55,3.06.19,4.73,2.59,4.16-2.56ZM390.02,246.3l-15.98,1.97-.05,5.72c5.15-1.21,10.72-1.22,16.03-1.93v-5.77ZM250.86,253.99l-50.03-3.21v3.85c7.81.8,15.61.82,23.42,1.27,1.09.06,2.1.6,3.19.66l23.42.64v-3.21ZM250.86,260.4l-50.03-2.57v3.85c2.44.11,4.94-.16,7.39-.01,11.48.71,23.11,1.36,34.61,1.94,2.66.14,5.37-.11,8.03,0v-3.21ZM250.86,266.18l-50.03-1.29.38,3.26c2.82,1.41,4.96,0,7.61-.08,13.98-.45,28.06.4,42.04.03v-1.92Z"/>
    <path d="M36.01,261.69c-1.65-.28-7.94.8-8.29-1.01l1.19-23.31-12.12-2.63c.43-13.38,3.37-26.57,5.8-39.7l16.01.29,11.39-28.89-11.98-7.44c-.34-.49.04-1.31.22-1.88.98-3.04,4.35-8.85,6.01-11.96,3.49-6.54,7.71-12.75,11.11-19.35l15.33,4.73,18.93-24.07-7.97-12.62.51-1.18c9.2-9.21,18.3-18.49,28.59-26.51l9.29,8.58,1.59.35,24.42-17.37-2.6-14.12,25.95-15.09,2.6.04,8.65,8.52,30.43-11.44c0-2,.18-4.06.05-6.06-.11-1.75-1.69-6.64-.03-7.71l34.66-7.72,5.52,11.84,31.63-3.18,2.97-12.81,35.8.64,3.03,12.15,31.29,3.2,4.85-11.97,34.62,8.13.44,13.45,30.67,11.6,7.95-9.52,28.56,15.4c.96,1.36-3.61,12.14-2.16,14.67l25.03,17.86,9.93-9.25c.58-.34,1.44.39,1.89.71,5.62,4.02,13.54,11.66,18.65,16.62,2.07,2.01,7.7,7.12,8.66,9.35.37.85.1.98-.18,1.69-1.1,2.81-7.71,9.83-7.14,11.95l18.52,23.9,14.77-5.22c6.72,10.66,13.23,21.71,18,33.33l-11.5,6.89c-.33.48-.12,1.42.03,2.01.98,3.79,3.97,9.14,5.49,13.12,1.88,4.9,3.33,9.99,5.37,14.83l16.59-.55c1.91,13.1,5.24,26.07,5.17,39.39l-14.78,3.58-.73-30.06-21.77-9.33c-16.39-57.91-56.6-106.24-108.54-135.81-92.63-52.75-214.73-48.72-302.07,13.06-45.49,32.18-78.79,79.9-91.17,134.58l-15.08,4.16v47.14Z"/>
    <path d="M191.21,77.63l-5.11-.66c0-1.98.04-3.92-.19-5.9-.13-1.11-.16-3.66-1.75-3.06l-.71,8.27-6.34,1.36c-.15,1.12,1.45.6,2.24.64,1.39.06,2.79-.04,4.17,0v97.48l-11.75-2.68-1.09-1.48,1.93-105.2.31-.98c5.04-3.03,11.35-3,16.64-.57.6.34,1.66,2.44,1.66,2.83v9.94Z"/>
    <path d="M191.16,79.6l3.25,98.07-5.06-1.35c-.26-2.2.1-4.46-.06-6.67-1.15-16.06-1.45-32.62-1.94-48.72l-1.27-42.02,5.08.69Z"/>
    <path d="M411.83,184.73l8.35,15.05c.02.56-7.07,1.81-8.35,2.27v-17.32Z"/>
    <path d="M208.21,166.77c.42,0,.42.64,0,.64s-.42-.64,0-.64Z"/>
    <polygon points="424.01 249.51 424.02 255.92 415.04 255.27 415.03 248.86 424.01 249.51"/>
    <path d="M437.43,251.48l.05,5.73c-2.83.28-5.54-.31-8.32-.66l-.02-6.39,8.29,1.33Z"/>
    <path d="M451.59,258.49l-8.98-.64v-5.78s8.38.92,8.38.92c1.13.74.43,4.12.6,5.49Z"/>
    <path d="M464.42,259.77l-8.34-.64.31-5.16,7.43.31c1.14.76.43,4.1.6,5.49Z"/>
    <polygon points="475.96 255.92 475.96 260.41 468.9 260.41 468.9 255.27 475.96 255.92"/>
    <path d="M486.86,257.2v4.48c-4.27.41-7.46.16-5.14-4.84l5.14.36Z"/>
    <path d="M561.26,233.15c-.05.19-.93,1.22-1.31.69l-4.82-1.61-.28-9.02c-1.11-.15-.62,1.47-.64,2.24-.03,1.49.55,6.39-1.01,6.7l-5.76-1.85-.29-9.01c-.72-.84-1.23-.1-1.28.95-.12,2.45.09,4.94,0,7.39-2.45-.03-5.47-.21-7.05-2.25v-9.3l-1.22,5.51-.06,4.11-7.05-2.24v-9.94h-1.28v10.26l-7.05-2.24v-13.15l39.12,13.15v9.62Z"/>
  </g>
  <line class="cls-2" x1="42.42" y1="394.85" x2="146.16" y2="395.42"/>
</svg>